<svg version="1.2" xmlns="http://www.w3.org/2000/svg" viewBox="0 0 461 461" width="461" height="461">
	<title>cooking-svgrepo-com-svg</title>
	<style>
		.s0 { fill: #000000 } 
	</style>
	<g id="XMLID_105_">
		<path id="XMLID_109_" class="s0" d="m178.1 164.9c14.8 1.1 14.5 1.1 39.3 2.9l43.7-13.9 38.8 51.8h-27.2c-0.1 5.2-1.4 10.1-3.6 14.7h28.1c4.3 11.4 15.4 19.5 28.3 19.5h57.5c16.7 0 30.2-13.5 30.2-30.2 0-2.2-1.7-3.9-3.9-3.9l-89.7-0.1-43.9-58.6c5.1-5 7.3-12.7 4.9-20-3.2-10.3-14.3-16.1-24.6-12.8l-3.9 1.3-5.2-6.9c-2.6-3.5-7.5-4.2-11-1.6-3.4 2.6-4.1 7.6-1.5 11l1.8 2.5-31.7 10-39.6-22.2c-4.6-8.7-13.8-14.7-24.4-14.7h-49c-15.2 0-27.6 12.3-27.6 27.5v64h46.7c0-16.3 0-17.3 0-28.2l-2.5-8.3 33.8 59.9c3.1 5.6 9 9.5 15.7 10l78.3 5.7c10.9 0.8 20.3-7.4 21.1-18.1 0.7-10.6-7.2-20.2-18.2-21.1l-67.8-5-30.6-54.3c30.3 31.4 27.5 28.5 37.7 39.1z"/>
		<path id="XMLID_991_" class="s0" d="m424.8 256.2h-140.1c-8.7 0-15.7 7-15.7 15.7 0 8.7 7 15.7 15.7 15.7v164.7c0 3.3 2.7 6 6 6h128c3.4 0 6.1-2.7 6.1-6v-164.7c8.7 0 15.7-7 15.7-15.7 0-8.7-7-15.7-15.7-15.7z"/>
		<path id="XMLID_992_" class="s0" d="m188.6 314.8h-50.3l5.3 14.4-21.8 102.7c-2.7 12.8 5.5 25.3 18.2 28 12.8 2.7 25.3-5.5 28-18.2l23.1-109.4c1.6-7.5-0.7-12.5-2.5-17.5z"/>
		<path id="XMLID_993_" class="s0" d="m63.9 232.9c0 36.8 0.6 15.2-2.9 99.5l-39.3 95.4c-5 12.1 0.8 25.9 12.8 30.8 12.1 5 25.9-0.8 30.8-12.8l40.9-99.2c1.1-2.6 1.7-5.3 1.8-8 3.1-74.2 2.6-51.9 2.6-105.7h-46.7z"/>
		<path id="XMLID_994_" class="s0" d="m116.2 81.5c-22.5 0-40.7-18.2-40.7-40.8 0-22.5 18.2-40.7 40.7-40.7 22.6 0 40.8 18.2 40.8 40.7 0 22.6-18.2 40.8-40.8 40.8z"/>
		<path id="XMLID_995_" class="s0" d="m181.1 236.1l-24.7-1.9c-16.8-1.2-27.5-13.9-29.6-21.2l-4-13.9h-58.9v19.9h60.6v74.9c0 3.9 3.1 7 6.9 7h61.4c2.2 0 4.3-1.1 5.6-2.9 1.3-1.8 1.7-4.1 1-6.2z"/>
	</g>
</svg>